<?xml version="1.0" encoding="UTF-8"?><svg id="Calque_1" xmlns="http://www.w3.org/2000/svg" viewBox="0 0 432.77 386.94"><defs><style>.cls-1{fill:#ede8e4;}.cls-2{fill:#333;}.cls-3{fill:#48b065;}</style></defs><path class="cls-2" d="M432.77,353.06c-8.97,10.74-21.65,19.07-38.03,24.99-16.39,5.92-34.54,8.88-54.47,8.88-20.93,0-39.28-4.57-55.05-13.7-15.78-9.13-27.96-22.39-36.54-39.78-8.58-17.38-12.98-37.81-13.2-61.28v-16.44c0-24.13,4.07-45.03,12.21-62.69,8.14-17.66,19.87-31.17,35.21-40.52,15.33-9.35,33.3-14.03,53.89-14.03,28.67,0,51.09,6.84,67.26,20.51,16.16,13.68,25.74,33.58,28.73,59.7h-48.49c-2.22-13.84-7.12-23.97-14.7-30.39-7.58-6.42-18.02-9.63-31.31-9.63-16.94,0-29.84,6.37-38.7,19.1-8.86,12.73-13.34,31.67-13.45,56.8v15.45c0,25.35,4.82,44.51,14.45,57.46s23.75,19.43,42.35,19.43,32.05-3.99,40.02-11.96v-41.69h-45.34v-36.7h95.16v96.49Z"/><path class="cls-3" d="M196.8,383.62h-49.82v-103.63H49.82v103.63H0V141.81H49.82v97.98h97.15v-97.98h49.82v241.81Z"/><g><path class="cls-3" d="M270.32,1.48c-4.1,1.49-10.66,2.44-15.5,2.11-5.79,1.19-11.22,2.87-16.3,5.04-16.91,8.15-24.82,22.02-30.78,39.45-3.55,5.68-12.21,7.51-17.02,10.95-2.9,2.41-6.76,4.15-9.48,6.79-10.41,8.86-14.65,21.93-14.62,36.05-.43,8.08,4.53,11.99,4.09,19.15-13.95-16.48-11.22-41.32,4.29-55.76,8-9.37,27.43-12.01,30.28-20.33C209.88,15.42,241.76-3.94,270.32,1.48h0Z"/><path class="cls-3" d="M270.32,1.48c3.78,.75,7.38,2.04,10.78,3.87,1.6,3.63,5.62,4.9,9.53,5.27,1.94,.81,2.66,3.27,5.34,3.22,8.47,2.27,16.72-3.13,23.94-1.87,.52-.04,.36,.61,.71,.62,1.82-.44,4.95-1.34,5.82,.93,.66,.58,2.75,.25,2.9,1.33-.16,.12-.43,.37-.08,.43,2.74,.62,7.03,2.48,2.16,2.61-13.58-3.52-28,1.73-39.61,8.87-2.08,1.39-4.08,1.33-6.01-.18-16.84-14.2-43.04-10.63-57.28,5.66-1.81-1.94,9.94-9.8,12.21-10.67,1.06-.8,.69-.71,.53-1.05,.91-.88,.25-.49-.48-.22-.72-.17,1.41-1.34,1.49-2.14-9.31,.23-19.17,8.21-23.47,16.95-1.24,2.79-2.22,6.38-3.59,8.74-1.62,4.17-1.16,7.08-4.02,10.49-6.23,6.15-14.94,7.63-21.31,13.73-3.61,2.93-6.52,5.43-8.24,9.37-1.33,4.5-6.29,7.77-5.08,11.8l2.21-.22c1.07-1.59,1.61-3.86,3.46-6.48,2.51-4.99,6.71-9.13,11.07-12.28,.63-.52,1.23-.59,1.8-.2-18.27,11.3-23.81,42.61,1.97,47.6,1.79,12.13,22.63,2.78,29.18,11.4,1.43,1.48,8.68,10.69,4.84,11.18-.96-.36-2.16-2.35-3.38-2.15-2.22,.66-2.06-1.14-5.53-2.03,.19-.23-.12-.38-.89-.45-1.08-.23-2.24-1.18-2.73,.39-13.7-7.86-31.01,3.03-47.86-15.02,.44-7.18-4.5-11.08-4.09-19.15-.04-14.11,4.21-27.2,14.61-36.05,2.73-2.65,6.59-4.39,9.48-6.79,4.81-3.43,13.48-5.27,17.02-10.95,5.92-17.37,13.94-31.36,30.78-39.45,5.07-2.17,10.51-3.85,16.3-5.04,4.84,.32,11.4-.61,15.5-2.11h0v.02s.01,0,.01,0Z"/><path class="cls-3" d="M228.54,32.25c-11.98,11.4-5.85,26.74-13.12,28.18-7.28,2.14-14.05,5.36-20.29,9.65-.57-.39-1.18-.32-1.8,.2-4.36,3.14-8.56,7.29-11.07,12.28-1.86,2.62-2.39,4.88-3.46,6.48l-2.21,.22c-1.22-4.03,3.76-7.32,5.08-11.8,1.74-3.96,4.63-6.45,8.24-9.37,6.39-6.11,15.08-7.58,21.31-13.73,2.86-3.42,2.39-6.32,4.02-10.49,1.37-2.35,2.35-5.95,3.6-8.74,4.29-8.73,14.16-16.73,23.47-16.96-.02,.7-2.27,2.04-1.5,2.14,.67-.21,1.45-.71,.48,.22-.08,.08-.07,.12,.06,.14,.35,.05,.16,.35-.59,.91-2.13,.78-14.05,8.72-12.21,10.67h0Z"/><polygon class="cls-1" points="331.43 17.9 331.44 17.9 331.44 17.9 331.43 17.9"/><polygon class="cls-1" points="227.79 44.9 227.78 44.91 227.79 44.91 227.79 44.9"/><path class="cls-1" d="M342.29,28.6c.07,.06,.14,.11,.21,.17-.07-.14-.11-.29-.11-.43-.04,.09-.07,.17-.1,.26Z"/><path class="cls-1" d="M345.39,27.1c-1.66-4.64-8.64-7.64-13.95-9.2h0c-13.58-3.52-28.02,1.75-39.61,8.88-7.98,4.31-16.86-15.96-43.69-7.07-15.14,4.56-28.06,17.9-28.6,34.18-.19,1.85-.24,4.28-1.85,5.46-11.55,4.45-24.16,9.05-31.66,19.57-8.32,9.92-9.82,26.76,1.52,34.83,.05-3.14,8.74,2.44,11.97,1.46,12.28-.68,23.65,4.54,32.59,12.71,4.93-1.06,6.56,6.72,11.11,4.88,.42,.43,.53,.18,.33-.75-1.69-2.29-2.92-3.8-3.72-4.51-1.91-1.28-1.97-5.18,.65-4.68,3.51-1.68,11.06,2.3,13.35,5.47,2.58,3.01,5.41,7.13,9.27,8.03,1.04-2.6,3.09-2.25,2.43-5.1-.83-6.08-5.35-10.56-3.94-16.21-1.64-3,2.87-4.54,5.09-4.18,2.72,.56,5.07,.61,6.61,3.1,2.82,4.06,5.27,6.32,7.07,10.57,1.97,3.98,3.16,1.17,5.04,2.38,2.84,1.97,3.54,7.06,7.47,7.27,.86-.01,1.18,.26,1.49,.98l-12.63-29.24c-.92-1.83,.93-4.65,3.03-3.38,6.97-6.64,10.39,7.88,12.9,.67,.91-2.03,.08-4.52,.54-6.53,1.12-2.19,1.11-4.47,.88-6.85-.57-3.04,3.51-3.56,3.31-5.66-1.07-2.74,3.01-4.24,2.01-7.35-.07-.5,.05-1,.33-1.42,1.08-1.37,.38-2.88,1.73-4.31,.02-1.47,1.81-4.37,2.07-4.84,.18-3.39,2.26-6.43,3.67-9.52,2.15-4.85,5.52-11.59,4.44-17.03-6.44-3.32-14.7,2.96-19.89,7.23-5.62,5.36-10.94,11.91-15.51,18.26-4.64,6.35-10.46,6.64-7.67-2.65-.59,.14-1.74,.16-1.81-.59,1.8-12.46,9.72-22.45,19.35-29.99,7.29-5.88,37.2-19.73,42.3-8.29,3.32,.97,6.23,2.81,8.87,4.94,.03-.09,.06-.17,.1-.26,0,.14,.04,.29,.11,.43,.06,.05,.12,.09,.18,.14,2,.3-2.22-1.87,2.71-1.81Zm-98.48,38.03c.98,1.38-2.29,1.94-3.49,2.14-15.04,.7-24.28,4.21-37.53,11.21-18.38,7.55-22.26,38.46-21.77,16.39h0c-2,.01-1.65-3.21-1.25-4.61,5.38-18.27,25.91-24.98,42.99-28.58,7.21-.91,13.98-1.02,20.75,1.78,1.09,.4,2.44,1.85,.3,1.68Zm25.92-38.86c-.39,1.23-2.85,.9-3.27,.75-1.05,.02-2.21,.27-3.23,.18-7.32-.54-13.98,1.17-19.96,5.11-6,3.66-8.67,6.12-12.67,10.97-3.26,5.99-10.85,16.44-5.9,1.62-.68-.34-2.77-.73-2.17-1.89,8.89-17.86,33.47-28,51.26-17.47,3.7,5.16-2.52,.91-4.05,.73Z"/><path class="cls-3" d="M364.55,41.16c1.98-3.1,.04-8.23-1.05-12.99-.53-1.7-1.35-3.39-.75-5.21-4.01-8.44-10.14-14.78-18.39-19.01-2.06,.8-5.02-1.82-7.26-.4-10.52,.93-19.98,1.28-30.52,4.64-3.17,.56-7.94,2.97-10.02,.1-5.57,2.81-10.98,.01-15.46-2.93h0c1.6,3.63,5.61,4.91,9.53,5.27,1.94,.81,2.66,3.28,5.34,3.22,8.46,2.27,16.74-3.13,23.94-1.87,.52-.04,.36,.61,.71,.62,1.8-.44,4.96-1.34,5.82,.94,.65,.58,2.75,.25,2.9,1.33-.12,.13-.46,.37-.08,.43,2.77,.63,7.02,2.48,2.16,2.61,6.05,1.66,10.93,4.26,14.57,9.36-.44-.53,1.69-1.1,2.15-.69,8.62,3.06,10.06,11.92,9.91,19.85-1.3,7.86-6.2,12.21-11.05,18.38-12.18,11.35-4.44,41.4,8.5,48.42,9.4,10.01-9.42-20.06-7.08-23.56l-1.55-5.53c-2.72,.46-.81-5.22-1.3-6.77-.22-1.76,2.62-5.99,3.04-6.53,6.08-9.66,14.95-17.63,15.94-29.65Z"/><path class="cls-2" d="M272.83,26.26c-17.13-5.88-37.63,1.82-45.04,18.64-.62-.38-2.82-.71-2.17-1.89,8.88-17.86,33.48-28,51.26-17.47,3.67,5.16-2.45,.92-4.05,.73h0Z"/><path class="cls-2" d="M252.79,25.1c6.79-1.32,13.47-.93,20.03,1.16-.48,1.28-2.73,.85-3.27,.75-9.7-.7-20.39,2.12-27.56,8.17-5.31,3.59-9,8.91-12.24,14.22-.32,.93-1.71,3.21-3.34,3.1-1-3.43,1.7-8.75,3.79-11.93-.98,2.76,3.68-2.72,3.57-2.56,2.27-2.11,5.1-4.34,8.5-6.7,2.92-2.02,5.79-3.47,8.61-4.34,.61-.06,2.77-.44,1.89-1.87h0Z"/><path class="cls-3" d="M295.77,8.51l7.1-3.14c3.36,1.3,7.04-1.53,10.97-1.8,5.56-.07,10.73-2.43,16.43-2.5,.82,.19,1.35-.01,1.6-.75,4.39,.48,8.55,1.68,12.51,3.63-2.06,.8-5.01-1.81-7.26-.4-2.77,1.5-5.23-.31-8.38,.46-6.33,.81-11.44,1.5-17.51,2.93-3.28,.21-11.86,5-14.5,1.36-.3-.03-.56,.27-.95,.21h0Z"/><path class="cls-3" d="M302.85,5.37c9.5-3.97,18.45-6.27,29-5.05-.26,.74-.78,.94-1.6,.75-5.71,.08-10.86,2.42-16.43,2.5-3.93,.26-7.6,3.1-10.97,1.8h0Z"/><path class="cls-2" d="M246.91,65.13c-22.64-4.2-57.07,4.26-62.79,29.74-2.03,.03-1.62-3.23-1.25-4.61,5.38-18.27,25.91-24.98,42.99-28.58,7.2-.92,13.98-1.02,20.75,1.78,1.07,.41,2.47,1.84,.3,1.68Z"/><path class="cls-2" d="M333.41,23.66c-26.35-6.18-52.21,14.35-59.83,38.88-.62,.17-1.71,.13-1.81-.59,1.8-12.46,9.72-22.45,19.35-29.99,7.03-5.84,37.55-19.73,42.3-8.29h0Z"/><path class="cls-2" d="M223.88,64.87c.21,1.13-1.98,1.73-2.48,2.06-12.47,5.29-25.9,9.61-33.09,21.53-1.09,1.25-2.42,7.25-4.03,5.47,3.88-17.76,23.52-25.79,39.6-29.07h0Z"/><path class="cls-2" d="M332.65,23.53c-15.99-.54-31.75,6.42-43.26,17.58-4.35,4.02-6.78,8.45-11.51,12.3-.39,.29-.6,.25-.65-.14,10.69-19.46,32.48-34.93,55.41-29.75h0Z"/><path class="cls-2" d="M223.88,64.87c3.29-.53,6.6-.82,9.94-.86-1.46,2.24-7.01,1.34-9.4,2.47-6.77,2.81-23.94,9.5-30.52,16.57-2.63,2.6-5.32,5.81-6.83,9.71-.69,2.54-3.85,8.1-2.8,1.18,1.52,1.86,3.02-4.32,4.03-5.47,7.19-11.93,20.61-16.25,33.09-21.54,.54-.35,2.65-.91,2.48-2.06h0s0,.01,0,.01Z"/><path class="cls-2" d="M332.65,23.53c10.12,2.88-9.43,.41-11.86,1.63-9.09,1.8-18.3,6.86-25.61,11.76-6.85,5.46-11.7,11.85-16.78,18.18-.21,.61-1.71,3.11-3.18,2.85l2-4.68c.04,.38,.27,.43,.65,.14,4.71-3.84,7.16-8.29,11.51-12.3,11.5-11.16,27.26-18.12,43.26-17.58h0Z"/><path class="cls-2" d="M233.82,64.02c4.41-.18,8.78,.19,13.09,1.11,1.05,1.34-2.35,1.97-3.49,2.14-15.04,.7-24.28,4.21-37.53,11.21-18.02,7.5-21.75,36.35-21.86,18.42,1.62,1.32,2.46-3.17,3.06-4.12,1.5-3.9,4.19-7.11,6.83-9.72,6.56-7.06,23.77-13.76,30.52-16.57,2.41-1.14,7.91-.22,9.4-2.47h0Z"/><path class="cls-2" d="M342.5,28.78c-2.24-1.71-4.45-3.52-7.2-4.42h0c1.19,1.84-7.65-.25-10.57,.44-10.75,.55-21.05,6.63-29.54,12.13-6.84,5.46-11.71,11.86-16.78,18.18-.33,.69-1.63,3.06-3.18,2.85-1.09,2.82-2.52,6.73-2.29,9.79,.34,.07,.48-.04,.41-.35,.36-1.39,2.88-1.52,3.68-2.5,5.85-6.49,10.6-15.62,18.18-21.7,9.9-9.51,26.15-15.25,39.73-12.71,2.14,.48,6.24-.36,8.59,.66,.52-.79-.65-1.59-1.03-2.38Z"/><path class="cls-1" d="M338.25,97.83c-5.15-12.05-6.7-29,3.07-39.27,7.9-7.9,12.47-22.27,4.23-31.8,.11,.48,.05,.6-.15,.35-4.92-.07-.73,2.11-2.72,1.8-.06-.04-.12-.09-.17-.13,.38,.79,1.55,1.59,1.03,2.38,.6,.26,1.09,.63,1.4,1.18,6.67,14.28-9.48,23.74-12.94,36.73-1.76,5.13-2.12,10.89-2.43,16.32,.42,.96-1.06,3.08-1.97,1.88,.47,11.11,3.19,21.93,6.25,32.57,1.73-.2,1.32,3.1,1.49,4.07-.65,4.32-6.75,.03,.62,6.35,2.35,1.2,5.18-1.89,6.38-3.45,.58-1.99-1.56-4.43-1.66-6.64-.21-3.49-6.86-21.08-2.43-22.34Z"/><path class="cls-1" d="M338.23,97.81c-4.43,1.16,2.22,18.94,2.43,22.35,.1,2.21,2.24,4.64,1.66,6.64-1.2,1.56-4.03,4.66-6.38,3.45-7.36-6.31-1.27-2.03-.62-6.34-.17-.97,.24-4.27-1.49-4.07,1.95,2.67-1.76,6.8-3.34,3.03-1.62-3.18-13.31-46.62-2.9-35.6h0s0-.04,0-.04c.91,1.24,2.37-.96,1.97-1.88,.31-5.43,.67-11.19,2.43-16.32,3.44-13,19.6-22.44,12.94-36.73-.32-.54-.8-.91-1.38-1.16-.04,.07-.09,.14-.16,.21,.07-.07,.12-.14,.16-.21-2.35-1.04-6.4-.19-8.61-.67-13.58-2.53-29.81,3.2-39.72,12.71-7.59,6.08-12.33,15.21-18.19,21.71-.79,.97-3.35,1.11-3.68,2.51,.06,.31-.08,.42-.41,.35,1.88,6.32,8.92-3,10.75-5.8,3.15-4.77,7.31-8.93,11.06-12.98,5.34-5.29,14.57-12.72,21.91-9.27,1.09,5.44-2.29,12.18-4.44,17.03-1.19,2.62-2.81,5.19-3.55,7.94,.19,2.05-.46,1.97-1.8,4.56-.4,.55,0,1.33-.39,1.86-1.35,1.44-.65,2.94-1.73,4.31-.7,2.27,.12,4.88-2.27,6.39-.98,1.24,.85,2.9-.55,3.72-3.33,1.75-2.91,4.48-2.69,7.43,.11,1.3-.66,2.51-1.03,3.74-.46,2.01,.36,4.49-.54,6.53-2.51,7.19-5.92-7.31-12.9-.67l.9,.71c6.58-2.44,16.17,29.8,20.78,35.88,.22,.43,.27,.5,.14,.23-.45-1.06-.49-1.32-.12-.79,1.15,1.74,1.86,5.86,.94,7.84-2.78,4.61-9.87,2.23-9.6-2.88,4.88,2.39,5.06-4.17,3.13-3.78-2.06,7.3-5.78-3.24-7.18-5.37-5.27,.58-5.74-8.21-10.03-7.66-1.18,.79-2.92-.99-3.39-2.18-1.79-4.24-4.26-6.51-7.07-10.57-1.98-2.74-6.73-4.12-9.83-2.41,1.65,1.04,2.9,2.45,3.74,4.26,5.74-1.4,13.69,17.93,16.69,23.43,2,4.26,6.49,11.57-.55,12.54-1.52,.16-2.73-1.27-.9-2.32,2.08-1.06,1.75-4.05-.17-4.98,1.42,2.17-1.49,5.22-3.16,2.81-.28-.43-.97-1.82-2.07-4.17-4.6-10.17-10.19-19.25-15.46-28.07-1.41,5.64,3.12,10.15,3.94,16.21,.65,2.85-1.4,2.5-2.44,5.1-3.86-.89-6.69-5.02-9.27-8.03-2.37-3.21-9.74-7.13-13.35-5.47,3.2,.53,29.67,34.45,20.47,32.88-6.75-6.61-10.35-16.83-17.39-23.69,.2,.93,.1,1.18-.33,.75-4.55,1.84-6.19-5.95-11.11-4.88,5.58,8.01,9.04,15.22,12.46,24.83,1.35,5.44,6.3,10.2,7.61,14.23,30.33-.65,58.23-13.92,82.22-30.93,5.24-4.51,12.24-9.28,14.44-16.19,.93-1.5,2.01,1.43,2.68,.37-5.78-6.44-9.36-12.71-13.27-22.4Zm-16.96,37.68c-1.04,3.16-4.76,1.3-6.69-.09-1.85-1.53,5.08,0,2.89-4.39-.1-.28-.32-1.69-1.16-1.59,.92,2.03-.54,4.06-2.23,3.32-1.92-1.42-2.32-4.07-3.48-6.6-1.27-3.29-15.72-41.75-5.08-30.4,5.59-1.18,7.39,13.92,9.37,18.05,.6,1.97,2.88,7.47,6.86,16.47,.3,1.8,.9,3.71-.47,5.24Z"/><path class="cls-3" d="M360.64,117.59l-1.42-2.91c-.49-.65-1.26-.97-1.6-1.78l.88,2.34c-1.05,.06-1.77-.71-3-2.04-4.59-1.99-5.92-4.49-8.42-9.4-6.46-11.56-10.21-28.2-.07-39.02,4.67-5.23,5.89-7.25,9.52-13.12,3.7-8.61,1.26-22.47-9.08-25.23-.44,.29-1.77-.02-1.45,.81,1.64,2.47,2.87,5.13,3.71,7.97,.09-2.47,3.01,2.94,1.93,.42,.79,.58,2.27,5.53,1.75,7.88-.17,9.64-9.6,16.74-13.82,25.55-3.58,6.49-3.28,11.67-2.31,18.57,.15,.52-.18,.46-.45,.11-.58-.32-.95,.81-1.66,.24,2.72,11.98,9.05,24.09,16.36,32.22,1.45-1.46,2.94,1.54,3.76,2.31,3.49,9.14-11.52,19.54-19.31,25.43-15.92,10.53-33.71,17.8-52.33,21.84-1.12,.3-11.38,1.33-9.13-1.01-5.35,1.06-10.76,1.51-16.21,1.37-2.09,6.42,19.62,6.29,25.66,4.67,19.52-3.95,39.98-13.92,55.51-23.43,5-1.27,17.31-17.23,19.06-14.52,.67-.18,.67-1.95,1.57-2.19,1.99-.39,.25,2.06,.38,3.01,.43,2.25-.28,2.22-.22,3.92-.02,1.29-.47,2.63,1.24,3,.41,.17,.12,.89,.75,.8-3.86,5.98-9.37,12.07-15.66,16.28-.56,.81-4.28,2.46-5.84,3.72-3.19,3.27-8.68,5.94-12.1,8.09-6.05,3.24-12.06,6.38-18.53,8.82-.15,.24-4.97,1.23-4.21,2.52,21.91-8.53,44.41-20.85,58.9-39.62,6.76-9.16-.21-17.8-4.17-27.66Z"/><path class="cls-3" d="M357.6,112.85s.02,.03,.02,.04l-.02-.05h0Z"/><path class="cls-3" d="M362.76,22.96c6.36,12.4,4.76,25.43-3.67,36.41-.39-.42-.71-.49-.95-.22-1.39,.64,.38-1.15,.69-2.24,3.66-5.37,4.62-11.97,6.67-17.82-.03-2.85-1.63-10.47-3.01-14.36-.05-.3,.23-1.43,.27-1.77h0Z"/><path class="cls-3" d="M335.14,88c-2.87-13.3,.35-24.29,9.93-34.25,3.98-5.56,5.53-11.73,4.64-18.51,.09-2.46,3.01,2.93,1.93,.42,9.21,17.67-19.54,29.68-14.67,49.16-.16,.36,.34,2.74,.21,3.23-.86-.96-1.07,.56-2.04-.04h0s0,0,0,0Z"/><path class="cls-1" d="M232.1,127.9c5.59,8.03,9.03,15.2,12.46,24.83,1.36,5.45,6.3,10.18,7.61,14.23l-1.98-.34c-.99,.25-1.85,1.02-2.98,.84-.69-.29-1.06-.69-1.12-1.2-.41-4.12-1.6-8.83-3.56-14.12-5.53-13.57-15.15-27.98-29.53-32.88-8.44-1.7-18.11,.15-25.47-5.53-.09-3.13,8.84,2.43,11.97,1.46,12.28-.68,23.65,4.54,32.59,12.71h0s0,0,0,0Z"/><path class="cls-3" d="M197.08,117.68c21.72,.02,30.4,7.64,41.42,25.64,3.55,6.03,7.05,16.52,7.59,22.93-.03,.72,1.01,1.07,1.56,1.57-7,9.98-16.37-30.72-24.5-26.33-1.29-2.02-2.82-3.84-4.58-5.46,.49-1.58,1.65-.62,2.73-.39,.77,.07,1.07,.23,.89,.45,3.48,.89,3.32,2.68,5.53,2.03,1.23-.2,2.43,1.79,3.38,2.15,3.87-.45-3.44-9.73-4.83-11.18-6.56-8.63-27.39,.73-29.18-11.4h0Z"/><path class="cls-3" d="M358.83,56.91c-.32,1.1-2.08,2.85-.69,2.24,.25-.28,.56-.2,.95,.22-5.2,7.61-14.45,14.4-12.22,24.74-2.36,.46-1.3-4.51-1.14-6.01,.87-8.39,8.83-14.52,13.1-21.17h0Z"/><path class="cls-2" d="M284.77,102.54l.9,.71c4.7,11.98,9.33,22.89,13.88,32.73,1.45,2.29,2.3,7.16-1.24,5.92-3.92-3.41-13.79-31.03-16.58-35.98-.91-1.83,.93-4.65,3.03-3.38h0s0,0,0,0Z"/><path class="cls-2" d="M305.52,95.75c2.73,11.5,6.33,22.73,10.79,33.67,.93,2.04-.54,4.06-2.23,3.32-6.32-9.79-8.96-23.64-12.32-34.14-1.87-3.81,1.95-7.22,3.76-2.85h0Z"/><path class="cls-2" d="M263.45,111.54c4.97,4.07,19.17,29.54,18.84,35.56-2.76,2.85-3.52-.48-5.26-4-4.19-8.95-8.71-17.22-13.57-24.81-1.68-2.66-4-5.85-.02-6.75h0s0,0,0,0Z"/><path class="cls-2" d="M240.46,122.84c4.45,1.98,24.39,28.38,22.28,32.32-2.93,2.31-4.66-2.73-6.06-4.61-3.81-6.58-8.19-12.76-13.14-18.52-2.26-4.12-6.46-4.88-4.57-8.81,.31-.5,.81-.62,1.49-.38h0Z"/><path class="cls-2" d="M327.59,87.26c.47,11.11,3.18,21.93,6.25,32.57,.75,1.51,.73,3.38-.63,4.36-5.5,1.49-9.22-29.48-10.01-34.46-.93-3.41,2.92-6.8,4.39-2.46h0Z"/><path class="cls-1" d="M285.67,103.25c6.47-2.59,16.27,29.95,20.79,35.88,.22,.43,.26,.51,.14,.23-.45-1.06-.49-1.32-.12-.79,1.15,1.74,1.87,5.87,.94,7.84-2.79,4.6-9.87,2.24-9.6-2.88,4.88,2.39,5.05-4.16,3.13-3.78-4.58-11.67-10.21-22.93-15.28-36.49h0Z"/><path class="cls-1" d="M305.52,95.75c5.74-1,7.31,13.81,9.37,18.04,.6,1.97,2.88,7.47,6.86,16.47,.3,1.8,.9,3.72-.47,5.24-.44,.72-1.4,2.46-2.9,1.72-.8-.18-5.69-2.15-3.58-2.61,2.74-.26,3.63-1.45,2.68-3.6-.1-.31-.32-1.67-1.16-1.59-4.46-10.94-8.06-22.17-10.79-33.67h0Z"/><path class="cls-1" d="M267.19,115.8c5.7-1.44,13.71,17.96,16.69,23.43,2,4.26,6.48,11.58-.55,12.54-1.52,.16-2.73-1.26-.9-2.32,2.08-1.06,1.75-4.05-.17-4.98-4.28-9.95-9.31-19.5-15.08-28.67h0Z"/><path class="cls-3" d="M360.08,134.71c-.91,.24-.91,2.01-1.57,2.19-1.11-2.15-6,3.99-7.39,5.13-13.12,12.34-24.02,16.79-42.22,24.98-13.61,5.19-38.54,14.84-50.63,4.57-.08-.09-.1-.09-.08,.03,.15,1.32-1.22-1.17,.09-1.42-3.7-.09-7.24-.87-10.63-2.35h0c-7,9.99-16.37-30.72-24.5-26.33,7.53,15,12.59,27.82,19.38,42.73,2.67,6.46,9.12,9.25,15.64,9.86,14.43,.9,34.78-4.25,47.74-9.21-.78-1.29,4.06-2.28,4.21-2.52,7.46-2.94,13.68-6,20.66-10.13,3.63-1.73,7.77-4.89,11.03-7.55,9.09-4.76,14.58-11.18,20.53-19.06,.26-.36-.75-.08-.59-.66-1.74-1.25-1.69-1.1-1.49-3.33-.05-1.69,.63-1.67,.22-3.92-.16-.96,1.63-3.41-.38-3.01h0s0,0,0,0Z"/><path class="cls-3" d="M348.43,89.64l12.21,27.95-1.42-2.91c-2.46-2.22-3.48-5.66-4.97-8.58-1.96-5.41-5.93-10.57-5.83-16.46h0Z"/><path class="cls-1" d="M351.51,120.22c-6.43,26.17-80.1,59.5-104.3,47.24,1.14,.18,1.98-.59,2.98-.84,5.3,.86,10.86,.09,15.87-.58,25.57-5.15,47.79-14.91,68.32-30.02,5.26-4.52,12.24-9.28,14.45-16.19,.87-1.48,2.07,1.44,2.67,.38h0Z"/><path class="cls-3" d="M274.49,168.8c24.71-6.51,68.15-22.72,77.02-48.58,1.47-1.48,2.92,1.56,3.76,2.31,3.53,9.08-11.57,19.59-19.31,25.43-15.92,10.53-33.71,17.8-52.33,21.84-1.56,.38-11.05,1.3-9.13-1.01h0Z"/><path class="cls-2" d="M240.85,33.75c3.22,0,3.22-5,0-5s-3.22,5,0,5h0Z"/><path class="cls-2" d="M244.49,31.35c.16-.12,.33-.23,.5-.33,.15-.09,.4-.15,.53-.27-.37,.15-.43,.18-.19,.08,.09-.03,.19-.07,.28-.1,.19-.06,.38-.12,.57-.17,.76-.2,1.54-.32,2.32-.45,1.88-.32,3.65-.89,5.33-1.8,1.15-.62,1.61-2.31,.9-3.42-.75-1.17-2.19-1.57-3.42-.9-.2,.11-.4,.21-.6,.31-.1,.05-.2,.1-.31,.14-.25,.11-.21,.09,.13-.05-.13,.12-.47,.18-.63,.24-.21,.07-.43,.14-.65,.21-.78,.23-1.58,.36-2.38,.5-1.71,.29-3.47,.65-4.91,1.68-.54,.39-.97,.83-1.15,1.49-.16,.6-.09,1.4,.25,1.93,.68,1.05,2.28,1.71,3.42,.9h0Z"/><path class="cls-2" d="M228.95,38.84v.17c-.01,.34,.06,.67,.22,.96,.1,.31,.27,.58,.52,.8,.23,.24,.49,.42,.8,.52,.3,.16,.62,.23,.96,.22l.66-.09c.42-.12,.79-.33,1.1-.64l.39-.51c.23-.39,.34-.81,.34-1.26v-.17c.01-.34-.06-.67-.22-.96-.1-.31-.27-.58-.52-.8-.23-.24-.49-.42-.8-.52-.3-.16-.62-.23-.96-.22l-.66,.09c-.42,.12-.79,.33-1.1,.64l-.39,.51c-.23,.39-.34,.81-.34,1.26h0Z"/><path class="cls-2" d="M228.57,39.59v.07c-.01,.34,.06,.67,.22,.96,.1,.31,.27,.58,.52,.8,.23,.24,.49,.42,.8,.52,.3,.16,.62,.23,.96,.22l.66-.09c.42-.12,.79-.33,1.1-.64l.39-.51c.23-.39,.34-.81,.34-1.26v-.07c.01-.34-.06-.67-.22-.96-.1-.31-.27-.58-.52-.8-.23-.24-.49-.42-.8-.52-.3-.16-.62-.23-.96-.22l-.66,.09c-.42,.12-.79,.33-1.1,.64l-.39,.51c-.23,.39-.34,.81-.34,1.26h0Z"/><path class="cls-2" d="M230.79,42.71c3.22,0,3.22-5,0-5s-3.22,5,0,5h0Z"/><path class="cls-2" d="M229.98,43.6c3.22,0,3.22-5,0-5s-3.22,5,0,5h0Z"/><path class="cls-2" d="M229.04,45.09c3.22,0,3.22-5,0-5s-3.22,5,0,5h0Z"/><path class="cls-2" d="M236.8,38.1s.02-.08,.04-.11l-.25,.6c.04-.07,.08-.14,.12-.21l-.39,.51c.15-.2,.35-.35,.54-.51l-.51,.39c.52-.4,1.07-.77,1.54-1.22s.83-1.04,1.23-1.57l-.39,.51c.18-.22,.39-.4,.6-.59,.1-.09,.19-.17,.28-.27,.21-.25,.44-.51,.59-.8,.31-.59,.43-1.27,.25-1.93-.16-.58-.61-1.21-1.15-1.49-.58-.31-1.28-.46-1.93-.25-.6,.2-1.19,.57-1.49,1.15-.04,.07-.08,.14-.12,.2l.39-.51c-.22,.28-.51,.48-.75,.73-.41,.42-.71,.92-1.06,1.38l.39-.51c-.24,.31-.53,.57-.84,.81l.51-.39c-.42,.33-.86,.64-1.27,.98-.55,.46-.93,1.09-1.15,1.77-.2,.6-.06,1.39,.25,1.93s.9,1.01,1.49,1.15c.64,.15,1.36,.11,1.93-.25s.94-.85,1.15-1.49h0Z"/><path class="cls-2" d="M256.56,27.13c3.22,0,3.22-5,0-5s-3.22,5,0,5h0Z"/><path class="cls-2" d="M262.06,26.6c3.22,0,3.22-5,0-5s-3.22,5,0,5h0Z"/><path class="cls-2" d="M261,26.57c3.22,0,3.22-5,0-5s-3.22,5,0,5h0Z"/><path class="cls-2" d="M260.57,26.6c3.22,0,3.22-5,0-5s-3.22,5,0,5h0Z"/><path class="cls-2" d="M264.66,25.07c1.16-.13,2.32-.08,3.47,.16s2.33,.54,3.49,.81c.78,.18,1.12-1.02,.33-1.21-2.41-.56-4.8-1.29-7.29-1.01-.34,.04-.62,.26-.62,.62,0,.31,.29,.66,.62,.62h0Z"/><path class="cls-2" d="M272.01,26.21c.8,0,.81-1.25,0-1.25s-.81,1.25,0,1.25h0Z"/><path class="cls-2" d="M272.34,26.33c.8,0,.81-1.25,0-1.25s-.81,1.25,0,1.25h0Z"/><path class="cls-2" d="M325.26,24.07c-3.37-.34-6.07,2.54-9.42,2.12l.32,1.16c1.35-.93,2.8-1.5,4.42-1.76,.8-.13,.45-1.32-.33-1.21-1.26,.19-2.53,.35-3.8,.48l.17,1.23c1.85-.51,3.73-.9,5.64-1.15l-.32-1.16c-3.63,2.01-7.92,1.64-11.76,2.98-1.84,.64-3.18,1.9-4.87,2.77-1.91,.99-4.14,1.12-6.09,2.05-.73,.35-.09,1.41,.63,1.08,1.89-.87,3.85-1.5,5.89-1.94l-.61-1.04c-1.57,1.96-3.77,3.08-6.07,3.97-1.75,.68-3.61,1.23-4.36,3.12-.26,.66,.81,1.1,1.14,.48,1.36-2.55,3.84-4.23,5.42-6.62l-1.16-.32c-.02,.25-.92,3.8-1.6,2.85l-.22,.86c1.17-.82,2.38-1.28,3.72-1.74,.86-.29,1.57-.68,2.06-1.46,.43-.68-.65-1.31-1.08-.63-.57,.89-1.81,1-2.73,1.35s-1.79,.82-2.6,1.4c-.26,.18-.43,.56-.22,.86,.61,.85,1.66,.98,2.48,.28,1-.86,1.35-2.53,1.45-3.77,.05-.66-.85-.79-1.16-.32-1.59,2.4-4.06,4.05-5.42,6.62l1.14,.48c.74-1.85,3.79-2.3,5.43-3.06,1.79-.83,3.44-1.92,4.69-3.48,.38-.48,.04-1.18-.61-1.04-2.14,.46-4.19,1.15-6.19,2.07l.63,1.08c1.89-.89,4.03-1.03,5.91-1.95,.95-.47,1.75-1.17,2.64-1.73s1.85-.95,2.86-1.25c3.77-1.1,7.81-.93,11.33-2.87,.51-.28,.32-1.25-.32-1.16-2.02,.26-4.01,.65-5.97,1.19-.65,.18-.56,1.3,.17,1.23,1.38-.14,2.76-.32,4.13-.52l-.33-1.21c-1.72,.28-3.29,.91-4.72,1.89-.54,.37-.29,1.09,.32,1.16,3.38,.43,6.07-2.46,9.42-2.12,.8,.08,.79-1.17,0-1.25h0Z"/><path class="cls-2" d="M305.45,25.64c-.92,.74-1.89,1.58-2.96,2.08-.97,.45-2.09,.46-3.12,.69-1.89,.42-3.7,1.43-4.32,3.37-.2,.63,.6,.99,1.04,.61,1.24-1.08,2.61-1.99,4.07-2.74l-.86-.86c-.45,.74-1.07,1.34-1.85,1.72-.82,.4-1.76,.45-2.6,.81-.68,.29-1.28,.76-1.57,1.45-.17,.41-.18,.85-.5,1.18-.29,.3-.71,.47-1.09,.61l.71,.92c.96-1.29,2.1-2.44,3.38-3.41l-.94-.54c-.01,.45-.18,.86-.55,1.14l.76,.98c.5-.46,1.01-.92,1.51-1.37,.6-.54-.29-1.42-.88-.88-.5,.46-1.01,.92-1.51,1.37s.18,1.41,.76,.98c.74-.56,1.15-1.29,1.17-2.22,0-.44-.55-.83-.94-.54-1.47,1.11-2.74,2.38-3.83,3.86-.32,.43,.21,1.1,.71,.92,.75-.27,1.54-.65,1.98-1.35,.26-.42,.25-.97,.53-1.36s.8-.61,1.26-.74c.95-.28,1.89-.43,2.73-.97,.77-.49,1.38-1.14,1.85-1.92,.34-.56-.32-1.13-.86-.86-1.56,.8-3,1.79-4.33,2.94l1.04,.61c.66-2.07,3.03-2.44,4.88-2.75,2.08-.34,3.59-1.55,5.2-2.84,.63-.5-.26-1.38-.88-.88h0Z"/><path class="cls-2" d="M291.77,34.72c-1.23,.53-2.16,1.51-3.14,2.39-.55,.5-1.16,.91-1.73,1.38s-1.1,1-1.61,1.54c-.92,.97-1.65,1.94-2.22,3.15-.45,.96-.94,2.43-1.95,2.95l.48-.06h-.08c.15,.14,.29,.28,.44,.43v-.04c-.06,.2-.12,.41-.17,.61l.03-.04-.76,.1h.03c.73,.33,1.37-.74,.63-1.07h-.03c-.24-.12-.56-.14-.76,.08-.18,.21-.24,.41-.18,.69,.04,.19,.24,.41,.44,.44,1.13,.15,2.01-1.5,2.43-2.35,.61-1.21,1.08-2.41,2.01-3.43,.52-.57,1.04-1.13,1.61-1.64s1.21-.94,1.8-1.43c1.1-.91,2.02-2.03,3.35-2.61,.74-.32,.1-1.4-.63-1.08h0Z"/><path class="cls-2" d="M294.99,35.84c-.84,1.47-2.06,2.55-3.61,3.23l.76,.98c1.29-1.09,2.52-2.23,3.71-3.43,.57-.58-.28-1.41-.88-.88-2.54,2.22-6.02,3.36-7.33,6.73l1.23,.17c-.06-.72,.88-1.35,1.36-1.78,.53-.49,1.09-.95,1.66-1.38l-.92-.71c-.22,1.58-1.53,2.4-2.8,3.15l.86,.86c.7-1.25,1.6-2.3,2.72-3.2l-.98-.76c-1.88,3.64-6.24,5.15-7.97,8.92-.28,.61,.45,1.3,.98,.76l5.66-5.75-.98-.76c-1.28,2.44-3.72,3.88-5.72,5.66l.98,.76c.4-.84,.97-1.5,1.76-2l-.86-.86c-.96,1.69-2.17,3.19-3.41,4.68l.98,.76c.46-.95,1.04-1.8,1.76-2.57l-1.04-.61c-.56,1.62-1.25,3.18-2.07,4.69l1.16,.32c.1-1.02,.3-2,.6-2.98,.21-.68-.8-1.1-1.14-.48-.98,1.75-1.96,3.51-2.95,5.26l1.16,.32c.09-.86,.33-1.67,.7-2.44l-1.08-.63c-.4,.86-.89,1.64-1.53,2.35l1.07,.44c.05-1.03,.28-2,.71-2.94,.33-.73-.62-1.31-1.08-.63-.42,.61-.89,1.13-1.45,1.62l.88,.88c.33-.33,.68-.57,1.12-.73,.75-.28,.42-1.48-.33-1.21-.65,.24-1.18,.57-1.67,1.05-.58,.57,.28,1.4,.88,.88,.64-.55,1.18-1.17,1.65-1.87l-1.08-.63c-.52,1.15-.82,2.31-.89,3.57-.03,.53,.71,.84,1.07,.44,.7-.79,1.28-1.64,1.72-2.6,.33-.72-.73-1.36-1.08-.63-.48,.99-.76,1.99-.88,3.08-.07,.63,.88,.83,1.16,.32,.98-1.75,1.96-3.51,2.95-5.26l-1.14-.48c-.33,1.09-.54,2.18-.65,3.31-.06,.63,.88,.84,1.16,.32,.86-1.6,1.59-3.27,2.19-4.99,.21-.59-.63-1.05-1.04-.61-.8,.85-1.45,1.78-1.96,2.83-.29,.59,.5,1.34,.98,.76,1.3-1.57,2.6-3.15,3.61-4.93,.3-.53-.31-1.19-.86-.86-.97,.6-1.72,1.41-2.21,2.45-.3,.64,.44,1.24,.98,.76,2.09-1.85,4.58-3.36,5.92-5.91,.32-.61-.47-1.28-.98-.76l-5.66,5.75,.98,.76c1.71-3.74,6.08-5.27,7.97-8.92,.34-.66-.44-1.19-.98-.76-1.2,.96-2.17,2.11-2.91,3.45-.3,.54,.31,1.18,.86,.86,1.53-.91,3.1-2.01,3.37-3.9,.06-.46-.43-1.08-.92-.71-.84,.63-1.64,1.3-2.4,2.03-.64,.62-1.32,1.26-1.24,2.21,.06,.72,.97,.83,1.23,.17,1.17-3.02,4.73-4.18,7.01-6.18l-.88-.88c-1.19,1.2-2.43,2.34-3.71,3.43-.59,.5,.16,1.24,.76,.98,1.73-.76,3.12-2.04,4.05-3.68,.4-.7-.68-1.33-1.08-.63h0Z"/><path class="cls-2" d="M275.6,56.94l-.05,.05c-.06,.06-.1,.12-.13,.2-.04,.07-.06,.15-.05,.24,0,.09,.01,.17,.05,.24,.03,.08,.07,.14,.13,.2l.13,.1c.1,.06,.2,.08,.32,.09l.17-.02c.11-.03,.2-.08,.28-.16l.05-.05c.06-.06,.1-.12,.13-.2,.04-.07,.06-.15,.05-.24,0-.09-.01-.17-.05-.24-.03-.08-.07-.14-.13-.2l-.13-.1c-.1-.06-.2-.08-.32-.09l-.17,.02c-.11,.03-.2,.08-.28,.16h0Z"/><path class="cls-2" d="M275.81,57.27h-.05c-.09,0-.17,.01-.24,.05-.08,.03-.14,.07-.2,.13-.06,.06-.1,.12-.13,.2-.04,.07-.06,.15-.05,.24l.02,.17c.03,.11,.08,.2,.16,.28l.13,.1c.1,.06,.2,.08,.32,.09h.05c.09,0,.17-.01,.24-.05,.08-.03,.14-.07,.2-.13,.06-.06,.1-.12,.13-.2,.04-.07,.06-.15,.05-.24l-.02-.17c-.03-.11-.08-.2-.16-.28l-.13-.1c-.1-.06-.2-.08-.32-.09h0Z"/><path class="cls-2" d="M275.05,57.47c-.23,.37-.28,.78-.4,1.19-.05,.17-.14,.26-.27,.43-.17,.23-.24,.47-.27,.75-.02,.21-.01,.43,0,.64,0,.11,0,.23,0,.34,0,.03,.02,.18,0,.21l.02-.09-.04,.06c-.31,.33-.48,.82-.52,1.3l1.16-.32-.02-.05,.09,.32v-.05c-.05,.15-.12,.29-.18,.44l.03-.04c.21-.26,.26-.63,0-.88-.22-.22-.67-.26-.88,0-.24,.29-.27,.56-.12,.9,.11,.25,.46,.36,.71,.29,.28-.08,.43-.33,.46-.6,0,.05,0,.03,0-.05,.01-.05,.02-.09,.04-.14,.02-.07,.03-.09,.09-.18,.1-.16,.28-.35,.35-.58,.14-.43,.03-.92,.05-1.36,0-.15,.03-.16,.11-.26,.16-.21,.28-.39,.37-.64,.12-.33,.15-.74,.31-.99,.18-.29,.06-.69-.22-.86-.3-.18-.67-.06-.86,.22h0Z"/><path class="cls-2" d="M277.3,58.19c.51-1.11,1.18-2.11,1.92-3.07,.79-1.03,1.58-2.06,2.37-3.09,.21-.27,.04-.7-.22-.86-.32-.19-.65-.04-.86,.22-.79,1.03-1.58,2.06-2.37,3.09-.74,.97-1.41,1.96-1.92,3.07-.14,.31-.09,.67,.22,.86,.27,.16,.71,.08,.86-.22h0Z"/><path class="cls-2" d="M330.97,25.57c.7-.04,1.39,0,2.08,.05s1.38,.1,2.06,.18c.33,.04,.64-.31,.62-.62-.02-.37-.28-.59-.62-.62-.69-.08-1.37-.13-2.06-.18s-1.39-.09-2.08-.05c-.33,.02-.64,.27-.62,.62,.01,.32,.28,.64,.62,.62h0Z"/><path class="cls-2" d="M325.95,22.87c-.84,.28-1.7,.53-2.56,.73s-1.75,.41-2.65,.39l.44,1.07c.24-.22,.67-.25,.97-.31,.37-.07,.75-.13,1.12-.17,.79-.09,1.58-.12,2.37-.14s1.59-.03,2.38-.07c.65-.03,1.73,.11,2-.63,.13-.34-.14-.65-.44-.77-.46-.18-.91-.38-1.35-.58-.73-.33-1.36,.75-.63,1.08,.54,.25,1.1,.48,1.65,.7l-.44-.77-.02,.05,.44-.44c-.33,.12-.78,.08-1.13,.1-.41,.02-.82,.04-1.23,.05-.77,.02-1.53,.03-2.3,.07s-1.52,.11-2.28,.23c-.7,.11-1.46,.22-2.01,.72-.41,.37-.08,1.06,.44,1.07,1.86,.03,3.8-.59,5.54-1.17,.76-.25,.43-1.46-.33-1.21h0Z"/><path class="cls-2" d="M335.28,24.44c-1.14-.49-2.29-.98-3.51-1.19s-2.43-.19-3.62-.45c-.78-.18-1.12,1.03-.33,1.21,1.15,.26,2.33,.25,3.49,.43s2.26,.63,3.34,1.09c.31,.13,.67,.09,.86-.22,.15-.26,.09-.72-.22-.86h0Z"/><path class="cls-2" d="M329.51,24c.8,0,.81-1.25,0-1.25s-.81,1.25,0,1.25h0Z"/><path class="cls-2" d="M329.66,24c.21,.01,.42-.01,.63-.02,.06,0,.12,0,.18,0h.04c-.09-.01-.1-.01-.03,0,.05,.01,.1,.02,.15,.04,.15,.05-.08-.04,.04,.01,.38,.18,.75,.38,1.11,.59,.28,.17,.7,.07,.86-.22s.08-.68-.22-.86c-.39-.23-.78-.45-1.2-.63-.29-.12-.56-.19-.88-.19-.22,0-.45,.04-.67,.02-.33-.02-.64,.3-.62,.62,.02,.36,.27,.6,.62,.62h0Z"/><path class="cls-2" d="M332.58,24.55c.8,0,.81-1.25,0-1.25s-.81,1.25,0,1.25h0Z"/><path class="cls-2" d="M332.76,24.53c.8,0,.81-1.25,0-1.25s-.81,1.25,0,1.25h0Z"/><path class="cls-2" d="M332.83,24.62c.8,0,.81-1.25,0-1.25s-.81,1.25,0,1.25h0Z"/><path class="cls-2" d="M332.86,24.62c.8,0,.81-1.25,0-1.25s-.81,1.25,0,1.25h0Z"/><path class="cls-2" d="M333.04,24.81c.8,0,.81-1.25,0-1.25s-.81,1.25,0,1.25h0Z"/><path class="cls-2" d="M333.11,24.87c.8,0,.81-1.25,0-1.25s-.81,1.25,0,1.25h0Z"/><path class="cls-2" d="M332.99,24.78c.8,0,.81-1.25,0-1.25s-.81,1.25,0,1.25h0Z"/><path class="cls-2" d="M333.09,24.8c.8,0,.81-1.25,0-1.25s-.81,1.25,0,1.25h0Z"/><path class="cls-2" d="M222.66,64.54c-4.24-.43-8.07,1.47-11.73,3.37-.61,.32-.18,1.41,.48,1.14,2.78-1.13,5.68-1.68,8.68-1.63,.35,0,.61-.29,.62-.62,.11-2.35-4.79-.21-5.78,.13l.61,1.04c.8-.73,1.65-1.31,2.6-1.79l-.92-.71c-.52,1.48-2.29,1.61-3.63,1.73-1.13,.1-2.2,.29-3.27,.7-2.15,.82-4.05,2.17-6.15,3.1-1.99,.88-4.08,1.5-5.8,2.89-.94,.76-1.82,1.5-2.83,2.17-.78,.52-1.46,1.08-1.86,1.94-.34,.73,.74,1.36,1.08,.63,.5-1.07,1.54-1.53,2.46-2.17,1.02-.71,1.85-1.64,2.91-2.29,2.05-1.25,4.43-1.87,6.54-3.02,2.34-1.27,4.43-2.46,7.13-2.71,1.92-.18,3.9-.61,4.61-2.63,.19-.55-.47-.93-.92-.71-1.05,.53-1.99,1.19-2.86,1.99-.45,.41,.02,1.24,.61,1.04,.77-.26,1.54-.5,2.33-.71,.36-.1,.71-.19,1.07-.27s.78-.04,.8-.35l.62-.62c-3.1-.06-6.14,.5-9.02,1.67l.48,1.14c3.47-1.81,7.06-3.61,11.1-3.2,.8,.08,.79-1.17,0-1.25h0Z"/><path class="cls-2" d="M233.63,63.1c-.8,1.05-1.92,1.81-3.19,2.17s-2.48,.11-3.79-.04c-2.4-.27-5.22,.55-7.28,1.77-.7,.41-.09,1.43,.63,1.08,2.4-1.16,4.92-2.38,7.64-2.5,2.3-.1,4.5,.56,6.7-.41l-.76-.98c-2.97,2.88-7.58,1.61-11.25,2.5-1.93,.47-3.31,1.68-4.99,2.64-2.05,1.17-4.37,2.19-6.67,2.75l.61,1.04c1.37-1.56,3.05-2.63,5.05-3.18l-.71-.92c-.44,.73-1,1.24-1.75,1.63l.92,.71c.2-.58,.52-.96,.99-1.32l-.88-.88-1.15,.94c-.62,.51,.27,1.39,.88,.88l1.15-.94c.63-.52-.26-1.37-.88-.88s-1.04,1.1-1.31,1.87c-.19,.55,.47,.94,.92,.71,.94-.48,1.66-1.17,2.2-2.08,.28-.47-.18-1.06-.71-.92-2.19,.6-4.11,1.79-5.6,3.5-.41,.47-.02,1.2,.61,1.04,2.22-.53,4.36-1.52,6.39-2.56s3.65-2.58,6.03-2.98c3.77-.63,8.02,.26,11.04-2.66,.55-.53-.15-1.25-.76-.98-2.29,1-5.06,0-7.48,.38s-4.67,1.47-6.86,2.52l.63,1.08c1.29-.76,2.79-1.2,4.26-1.49,1.63-.31,3.07,.18,4.68,.15,2.31-.03,4.39-1.2,5.78-3.01,.49-.64-.6-1.26-1.08-.63h0Z"/><path class="cls-2" d="M209.49,71.67c-1.76,1.41-3.93,2.06-6.04,2.76-.93,.31-1.86,.62-2.76,1-.75,.32-1.69,.62-1.94,1.48-.1,.37,.19,.82,.6,.79,.54-.04,.86-.24,1.31-.53,.59-.38,1.19-.63,1.86-.84,1.14-.36,2.29-.64,3.3-1.31l-.92-.71c-.71,2.56-3.91,2.9-5.99,3.79-2.26,.96-3.31,2.99-5.13,4.48l1.04,.61c.7-1.96,2.29-3.61,3.94-4.84,.91-.68,1.89-.87,2.95-1.18,.97-.28,1.89-.7,2.75-1.23l-.86-.86c-1.35,2.45-4.19,3.27-6.59,4.33-1.14,.5-2.36,1.1-3.25,1.99-.35,.35-.55,.74-.75,1.19-.34,.79-.8,1.42-1.52,1.93l.92,.71c.22-1.1,.62-2.14,1.06-3.17,.3-.72-.68-1.36-1.08-.63-.83,1.51-1.65,3.03-2.48,4.54-.39,.71,.69,1.34,1.08,.63,.83-1.51,1.65-3.03,2.48-4.54l-1.08-.63c-.48,1.13-.94,2.26-1.18,3.47-.1,.48,.44,1.05,.92,.71s.94-.74,1.31-1.22c.44-.59,.6-1.37,1.05-1.92,.91-1.13,2.64-1.75,3.93-2.29,2.41-1,4.95-2.05,6.27-4.45,.29-.53-.31-1.19-.86-.86-1.11,.68-2.24,1.03-3.49,1.37-1.09,.3-1.97,.81-2.83,1.52-1.68,1.39-3.16,3.02-3.9,5.1-.23,.65,.61,.96,1.04,.61,1.01-.83,1.74-1.9,2.66-2.82,1.03-1.03,2.29-1.52,3.65-1.97,2.14-.7,4.48-1.66,5.14-4.04,.14-.5-.45-1.01-.92-.71-.92,.61-1.96,.86-3.01,1.19-.43,.13-.85,.28-1.26,.47-.45,.2-1.11,.82-1.58,.86l.6,.79c.08-.29,.83-.51,1.08-.62,.51-.23,1.04-.42,1.57-.61,.92-.32,1.86-.61,2.78-.93,1.79-.61,3.5-1.35,4.98-2.55,.63-.5-.26-1.38-.88-.88h0Z"/><path class="cls-2" d="M185.94,94.18c-.23,.42-.46,.84-.71,1.25l1.14,.15c-.07-.41-.16-.84-.38-1.2-.26-.42-.65-.64-1.08-.85v1.08c.71-.35,1.37-.8,1.97-1.33s1.27-1.16,1.5-1.92c.1-.32-.12-.68-.44-.77s-.67,.11-.77,.44c-.08,.27-.32,.51-.52,.73-.23,.24-.47,.47-.72,.69-.49,.42-1.06,.78-1.66,1.08-.4,.2-.41,.88,0,1.08,.16,.07,.32,.14,.46,.23,.11,.07,.14,.11,.2,.22,.11,.2,.17,.55,.22,.84,.04,.24,.3,.42,.52,.45,.25,.03,.49-.08,.62-.3,.25-.41,.48-.82,.71-1.25,.16-.3,.07-.68-.22-.86-.28-.17-.7-.07-.86,.22h0Z"/><path class="cls-2" d="M187.89,87.21c-.68,1.55-1.49,3.11-1.79,4.79-.14,.79,.94,1.1,1.21,.33,.39-1.11,1.28-2,1.91-2.97,.69-1.06,1.3-2.17,2.06-3.18l-1.16-.32c-.05,.53-.43,1.08-.68,1.54-.3,.56-.61,1.11-.93,1.65-.4,.7,.68,1.33,1.08,.63,.36-.62,.71-1.23,1.04-1.86s.66-1.25,.74-1.96c.03-.27-.21-.54-.46-.6-.29-.08-.54,.06-.71,.29-.79,1.04-1.4,2.19-2.12,3.28s-1.56,1.97-1.98,3.18l1.21,.33c.28-1.57,1.03-3.03,1.66-4.49,.13-.31,.09-.67-.22-.86-.26-.15-.72-.09-.86,.22h0Z"/><path class="cls-2" d="M185.71,95.7c-.15,.05-.27,.12-.38,.23-.04,.04-.08,.09-.12,.14-.1,.12-.19,.24-.29,.36s-.18,.23-.28,.35c-.08,.1-.16,.21-.26,.3l.13-.1s-.05,.04-.08,.05l.15-.06s-.04,.02-.07,.02l.17-.02s-.04,0-.05,0c-.15-.01-.34,.08-.44,.18s-.19,.29-.18,.44,.06,.33,.18,.44l.13,.1c.1,.06,.2,.08,.32,.09,.27,.02,.54-.13,.71-.32,.11-.11,.2-.24,.29-.36,.1-.13,.21-.26,.31-.39,.09-.12,.18-.26,.3-.35l-.13,.1s.04-.03,.06-.04l-.15,.06h.02c.15-.06,.29-.15,.37-.29,.08-.13,.11-.33,.06-.48s-.14-.3-.29-.37-.32-.12-.48-.06h0Z"/><path class="cls-2" d="M184.75,97.55c.8,0,.81-1.25,0-1.25s-.81,1.25,0,1.25h0Z"/><path class="cls-2" d="M184.72,97.5c.8,0,.81-1.25,0-1.25s-.81,1.25,0,1.25h0Z"/><path class="cls-2" d="M184.65,97.55c.8,0,.81-1.25,0-1.25s-.81,1.25,0,1.25h0Z"/><path class="cls-2" d="M271.77,26.8c.7,.1,1.4,.19,2.1,.29s1.37,.16,2.01,.42l.33-1.21c-1.09-.37-2.25-.45-3.39-.5s-2.32-.13-3.47-.29c-.33-.05-.67,.08-.77,.44-.08,.29,.1,.72,.44,.77,1.18,.16,2.36,.28,3.55,.32,1.12,.04,2.24,.1,3.31,.46,.32,.11,.68-.13,.77-.44,.1-.36-.12-.64-.44-.77-.64-.26-1.33-.33-2.01-.42s-1.4-.19-2.1-.29c-.33-.05-.67,.08-.77,.44-.08,.29,.1,.72,.44,.77h0Z"/><path class="cls-2" d="M330.89,22.54l.06-.03-.48,.06c.15,.03,.44,.3,.6,.41,.23,.17,.46,.34,.68,.51,.46,.36,.92,.72,1.38,1.08,.91,.69,1.84,1.35,2.87,1.85,.3,.15,.68,.08,.86-.22,.16-.27,.08-.71-.22-.86-1.1-.53-2.09-1.25-3.06-1.99-.5-.39-.99-.77-1.49-1.15s-1.16-1.08-1.83-.74c-.3,.15-.39,.58-.22,.86,.18,.31,.55,.38,.86,.22h0Z"/><path class="cls-2" d="M330.75,22.42c.49,.42,.95,.87,1.38,1.35,.21,.24,.42,.48,.62,.73,.02,.03,.04,.05,.06,.08,0,0,.1,.12,.05,.06s.04,.05,.05,.06c.02,.03,.04,.05,.06,.08,.1,.14,.2,.28,.3,.42,.19,.27,.56,.42,.86,.22,.27-.17,.42-.57,.22-.86-.78-1.12-1.69-2.14-2.72-3.03-.25-.21-.64-.26-.88,0-.22,.23-.26,.66,0,.88h0Z"/><path class="cls-2" d="M331.65,23.13s.06,.04,.1,.06c.02,.01,.11,.08,.03,.02s.01,.01,.02,.02c.02,.02,.05,.04,.07,.06,.1,.09,.19,.18,.28,.28,.18,.2,.35,.4,.56,.57,.14,.12,.3,.23,.45,.33,.04,.03,.07,.05,.11,.08,.09,.07-.06-.05,0,0s.1,.09,.15,.13c.05,.05,.1,.1,.15,.16,.02,.02,.04,.05,.06,.08,.05,.06-.08-.11-.01-.02,.08,.12,.16,.24,.22,.37,.15,.29,.59,.4,.86,.22,.3-.19,.38-.54,.22-.86-.14-.29-.34-.56-.57-.8-.13-.13-.28-.25-.43-.36-.07-.05-.13-.09-.2-.14-.03-.02-.06-.04-.09-.06-.02-.01-.04-.03-.05-.04-.04-.03-.02-.02,.04,.03-.04,0-.11-.1-.15-.13-.05-.05-.11-.11-.16-.16-.1-.1-.19-.2-.28-.31-.21-.23-.45-.45-.72-.61s-.7-.07-.86,.22-.08,.68,.22,.86h0Z"/><path class="cls-2" d="M331.17,22.74c.64,.55,1.27,1.14,1.94,1.65,.3,.23,.64,.41,.94,.64-.06-.04,.04,.04,.06,.05,.03,.03,.07,.06,.1,.09,.08,.07,.15,.13,.23,.2,.15,.14,.3,.28,.44,.42,.23,.23,.65,.25,.88,0s.25-.64,0-.88c-.28-.28-.57-.55-.88-.8-.33-.26-.7-.47-1.04-.72-.01,0-.08-.06-.03-.02-.04-.03-.07-.06-.1-.08-.08-.06-.15-.13-.23-.19-.15-.13-.3-.26-.45-.39l-.97-.84c-.25-.21-.64-.26-.88,0-.22,.23-.26,.66,0,.88h0Z"/><path class="cls-2" d="M331.14,22.57l1.85,1.54c.59,.49,1.21,.96,1.72,1.55,.22,.25,.67,.24,.88,0,.24-.26,.23-.62,0-.88-.51-.58-1.13-1.05-1.72-1.55l-1.85-1.54c-.25-.21-.64-.26-.88,0-.21,.23-.27,.66,0,.88h0Z"/><path class="cls-2" d="M330.94,22.38c.19,.08,.36,.18,.53,.3,.08,.05,.16,.11,.24,.17l.05,.04s-.03-.03,0,0c.03,.03,.07,.05,.1,.08,.33,.26,.65,.54,.95,.82,.61,.56,1.18,1.17,1.7,1.81,.21,.25,.67,.23,.88,0,.25-.27,.22-.61,0-.88-.54-.66-1.12-1.28-1.75-1.86-.31-.28-.63-.56-.96-.82-.35-.28-.71-.56-1.12-.74-.3-.13-.69-.1-.86,.22-.14,.27-.09,.71,.22,.86h0Z"/><path class="cls-2" d="M330.43,21.96c.92,.87,1.82,1.73,2.85,2.47,.82,.58,1.69,1.16,2.19,2.04,.4,.7,1.48,.07,1.08-.63-.58-1.01-1.52-1.69-2.45-2.35-1.01-.72-1.89-1.56-2.79-2.41-.58-.55-1.47,.33-.88,.88h0Z"/><path class="cls-2" d="M330.98,22.38l1.19,1.06c.18,.16,.37,.32,.54,.5s.33,.37,.52,.54c.4,.33,.84,.62,1.26,.92,.45,.32,.91,.64,1.36,.96,.28,.19,.69,.05,.86-.22,.18-.31,.05-.66-.22-.86-.43-.3-.86-.6-1.29-.9-.38-.27-.8-.52-1.15-.83-.17-.15-.31-.32-.46-.48-.17-.18-.36-.33-.54-.5l-1.19-1.06c-.25-.22-.64-.25-.88,0-.23,.23-.25,.66,0,.88h0Z"/><path class="cls-3" d="M292.33,170.56c-4.74-.44-9.48-.33-14.2,.31-4.31,.58-8.96,2.33-13.31,1.32l-.66,4.91c7.62,.3,15.24-.13,22.85-.69s14.74-.92,21.87-2.77l-2.82-3.67c-2.05,3.19-6.09,4.22-9.65,4.41-4.79,.26-9.63-.18-14.42-.17-2.44,0-4.88,.04-7.32,.12-2.31,.07-4.83,.49-7.12,.15-1.74-.26-3.2-1.32-4.73-2.11-1.75-.9-3.63-1.62-5.63-1.4l2.41,1.84v.59c-.2,.37-.42,.74-.63,1.1l.17-.19c.89-1.02,1-2.54,0-3.54-.91-.91-2.64-1.02-3.54,0-.83,.95-1.26,2.12-.82,3.36,.34,.95,1.29,1.96,2.41,1.84,1.8-.2,3.22,.78,4.73,1.61,2.08,1.14,4.14,1.89,6.54,1.96,2.55,.08,5.12-.18,7.67-.25s5.21-.09,7.81-.07c8.91,.06,20.78,2.11,26.44-6.72,1.21-1.88-.79-4.2-2.82-3.67-6.86,1.78-14,2.11-21.04,2.63-7.44,.54-14.89,.95-22.35,.66-2.8-.11-3.42,4.27-.66,4.91,4.89,1.13,9.63-.35,14.45-1.1s9.61-.79,14.39-.35c1.35,.13,2.5-1.24,2.5-2.5,0-1.46-1.15-2.37-2.5-2.5h0Z"/><path class="cls-3" d="M316.21,170.82c4.49-7.63,13.75-10.33,21.27-13.9,8.2-3.89,15-9.94,18.89-18.24,.57-1.22,.34-2.7-.9-3.42-1.08-.63-2.84-.33-3.42,.9-1.8,3.84-4.25,7.27-7.36,10.16-3.31,3.08-7.27,5.18-11.35,7.04-8.01,3.63-16.76,6.97-21.45,14.95-1.64,2.78,2.68,5.3,4.32,2.52h0Z"/><path class="cls-3" d="M349.4,110.22c-.43-.15,.1,.11-.11-.04-.23-.16,.12,.11,.16,.15,.24,.22,.45,.46,.66,.7,.15,.17,.14,.19,0,0,.1,.15,.21,.29,.31,.44,.19,.27,.36,.54,.54,.81,.8,1.22,1.63,2.44,2.76,3.38,.26,.21,.52,.41,.77,.63,.15,.14,.28,.29,.43,.43,.22,.22-.11-.25,.01,.04,.07,.17,.19,.33,.28,.49,.1,.18,.11,.26,.02,.02,.12,.32,.23,.65,.32,.98,.46,1.57,.85,3.17,1.27,4.75,.34,1.26,1.8,2.16,3.08,1.75s2.11-1.72,1.75-3.08c-.45-1.69-.84-3.41-1.37-5.08-.59-1.86-1.52-3.23-3.01-4.47-.29-.24-.58-.5-.84-.78-.1-.11-.19-.22-.28-.32-.45-.53,.26,.39-.13-.18s-.76-1.15-1.15-1.72c-1.07-1.58-2.29-3.07-4.14-3.73-1.23-.44-2.79,.49-3.08,1.75-.32,1.4,.42,2.61,1.75,3.08h0Z"/><path class="cls-3" d="M340.6,70.95c-1.28,6.48-2.02,13.06-2.19,19.67l1.84-2.41-.23,.04h1.33c.49,.09,.71,.75,.33,.07-.19-.35-.37-.7-.55-1.06-.26-.52-.51-1.04-.74-1.58-.57-1.36-1.01-2.79-1.29-4.23-.47-2.41-.38-5.14,.66-7.42l-4.57-.6c.59,1.47,1.01,2.97,1.27,4.53,.22,1.33,1.87,2.08,3.08,1.75,1.41-.39,1.97-1.74,1.75-3.08-.26-1.56-.68-3.06-1.27-4.53-.38-.94-1.01-1.66-2.08-1.79-.91-.11-2.08,.29-2.49,1.19-1.74,3.85-1.96,8.01-.98,12.1,.48,1.98,1.24,3.88,2.12,5.71,1.03,2.15,2.25,4.2,4.99,3.71,1.09-.19,1.81-1.39,1.84-2.41,.16-6.16,.82-12.29,2.02-18.34,.26-1.32-.38-2.7-1.75-3.08-1.23-.34-2.81,.41-3.08,1.75h0Z"/><path class="cls-3" d="M349.9,94.17c-.04-.11-.1-.23-.14-.34-.04-.09-.09-.23-.14-.33-.01-.02-.02-.05-.04-.07-.13-.2-.28-.38-.44-.57-.02-.02-.04-.04-.06-.06,0,0-.02-.02-.03-.03,0,0,0,0-.01,0l-.51-.39s-.01,0-.02-.01c-.02-.02-.05-.03-.07-.05-.01,0-.02-.01-.03-.02,0,0-.01,0-.02,0-.1-.04-.2-.09-.3-.13-.1-.04-.2-.09-.3-.13-.03-.01-.05-.02-.08-.03-.33-.1-.66-.12-1-.04-.33,.02-.64,.11-.93,.3-.29,.16-.53,.37-.7,.64-.22,.24-.37,.52-.45,.85l-.09,.66c0,.45,.12,.87,.34,1.26l.39,.51c.31,.31,.68,.52,1.1,.64,.03,0,.06,.02,.09,.03l-.6-.25c.05,.02,.1,.05,.15,.09l-.51-.39s.08,.07,.11,.11l-.39-.51s.06,.09,.08,.14l-.25-.6s0,.02,.01,.04c.08,.33,.23,.61,.45,.85,.18,.27,.41,.49,.7,.64,.29,.18,.6,.28,.93,.3,.33,.07,.66,.06,1-.04l.6-.25c.38-.22,.67-.52,.9-.9l.25-.6c.12-.44,.12-.89,0-1.33h0Z"/><path class="cls-3" d="M346.77,94.51c3.22,0,3.22-5,0-5s-3.22,5,0,5h0Z"/><path class="cls-3" d="M344.64,78.63c3.22,0,3.22-5,0-5s-3.22,5,0,5h0Z"/><path class="cls-3" d="M349.65,31.62c.77,4.79,1.35,9.85,1.01,14.71-.16,2.16-.95,3.88-2.11,5.68s-2.31,3.61-2.63,5.75c-.17,1.12,.11,2.22,1.15,2.82,.91,.53,2.31,.44,3.03-.39,4.06-4.67,7.91-9.51,11.57-14.5l-4.57-1.93c-1.22,5.15-3.92,9.69-7.84,13.24l3.93,3.03c1.51-3.57,3.92-6.73,6.06-9.94,2.31-3.45,4.61-6.91,6.92-10.36,1.59-2.38-1.96-5.03-3.93-3.03-.27,.27-.53,.54-.8,.82-2.26,2.3,1.28,5.84,3.54,3.54,.27-.27,.53-.54,.8-.82l-3.93-3.03c-2.31,3.45-4.61,6.91-6.92,10.36-2.14,3.21-4.55,6.37-6.06,9.94-.49,1.15-.44,2.42,.64,3.23,1.02,.77,2.34,.66,3.28-.2,4.51-4.08,7.72-9.52,9.13-15.44,.68-2.88-2.93-4.16-4.57-1.93-3.41,4.65-7.01,9.14-10.79,13.49l4.18,2.43c.32-2.13,1.67-3.75,2.75-5.54,1.34-2.23,1.98-4.63,2.17-7.21,.38-5.3-.35-10.81-1.18-16.04-.21-1.33-1.88-2.08-3.08-1.75-1.42,.39-1.96,1.74-1.75,3.08h0Z"/><path class="cls-3" d="M357.27,49.68c-.14,.58-.31,1.15-.52,1.71-.11,.28-.09,.31,0,.01-.05,.15-.13,.29-.19,.43-.12,.25-.25,.51-.38,.75-.3,.55-.63,1.09-.99,1.61-.07,.1-.15,.21-.22,.31,0,.01-.37,.5-.15,.2s-.11,.14-.16,.2c-.1,.12-.2,.25-.31,.37-.79,.92-1.64,1.78-2.54,2.6-1.06,.95-2.11,1.79-2.92,2.99-1.04,1.54,.33,3.87,2.16,3.76,1.24-.07,2.28-.67,2.91-1.76,.21-.36,.35-.76,.49-1.14,.17-.46-.3,.47,0,.05-.32,.46-.82,.71-1.4,.73l-2.16-1.24-.15-1.23c-.1,.69-.12,1.3,.25,1.93,.3,.52,.9,1.01,1.49,1.15,1.18,.27,2.88-.36,3.08-1.75,.15-1.01,.08-1.69-.36-2.62-.36-.76-1.35-1.26-2.16-1.24-1.24,.04-2.29,.68-2.92,1.75-.21,.35-.36,.76-.5,1.14-.16,.46,.3-.45,.01-.05,.33-.46,.81-.68,1.41-.72l2.16,3.76c.34-.5-.23,.21,.02-.03,.11-.11,.21-.24,.33-.35,.23-.23,.47-.44,.71-.65,.48-.42,.97-.83,1.44-1.26,.91-.85,1.78-1.75,2.56-2.71,1.76-2.18,3.19-4.6,3.84-7.35,.3-1.27-.4-2.77-1.75-3.08s-2.75,.38-3.08,1.75h0Z"/><path class="cls-3" d="M323.79,7.59c.95,0,1.9,0,2.84,.03,.47,.02,.94,.05,1.41,.1,.13,.01,.27,.03,.4,.05-.33-.05-.35-.05-.06,0,.22,.04,.44,.07,.66,.12,.41,.08,.81,.18,1.21,.31,.2,.06,.4,.13,.59,.2,.11,.04,.22,.08,.33,.13-.3-.13-.36-.15-.19-.08,.37,.19,.74,.36,1.09,.58,.14,.09,.42,.21,.51,.34-.27-.21-.3-.24-.09-.06,.09,.08,.18,.15,.27,.23,.97,.87,2.59,1.03,3.54,0,.88-.95,1.04-2.6,0-3.54-1.63-1.46-3.62-2.43-5.76-2.9s-4.5-.52-6.76-.51c-1.31,0-2.56,1.15-2.5,2.5s1.1,2.5,2.5,2.5h0Z"/><path class="cls-1" d="M262.31,168.64c2.28-.19,4.19-1.34,6.4-1.81,2.06-.44,4.2-.46,6.28-.81,2.31-.38,4.08-1.43,6.13-2.46,1.85-.93,4.19-1.11,6.18-1.65,4.54-1.23,8.96-2.89,13.3-4.7,2.23-.93,4.45-1.89,6.66-2.87s4.4-1.81,6.32-3.2c2.08-1.5,4.02-2.99,6.29-4.22,2.46-1.33,4.93-2.65,7.4-3.98,2.83-1.52,.31-5.84-2.52-4.32-4.06,2.18-8.45,4.13-12.11,6.96-1.77,1.37-3.49,2.48-5.55,3.4s-4.3,1.91-6.46,2.83c-4.13,1.77-8.33,3.4-12.63,4.7-2.21,.66-4.45,1.13-6.68,1.7-2,.5-3.54,1.81-5.44,2.47-2.19,.76-4.57,.75-6.84,1.07-1.11,.15-2.21,.35-3.28,.72-1.12,.39-2.26,1.09-3.46,1.19-1.35,.11-2.5,1.07-2.5,2.5,0,1.27,1.15,2.61,2.5,2.5h0Z"/><path class="cls-1" d="M332.37,130.55c-.76,1.27-1.48,2.57-2.3,3.8-.11,.16-.22,.32-.33,.48-.09,.13-.31,.42-.1,.15-.23,.29-.47,.57-.73,.84-.21,.22-.44,.43-.67,.64-.13,.11-.26,.22-.39,.33-.36,.3,.19-.12-.06,.04-1.1,.72-2.2,1.38-3.4,1.92-.16,.07-.32,.14-.48,.21,.2-.09,.26-.11,.02-.01-.32,.13-.65,.26-.97,.38-.65,.25-1.3,.48-1.95,.72-1.23,.44-2.18,1.72-1.75,3.08,.39,1.21,1.76,2.22,3.08,1.75,2.81-1.01,5.73-2.04,8.14-3.85,1.44-1.08,2.6-2.28,3.64-3.76,.94-1.34,1.73-2.79,2.56-4.19,.67-1.12,.29-2.79-.9-3.42s-2.71-.3-3.42,.9h0Z"/></g></svg>